<svg xmlns="http://www.w3.org/2000/svg" viewBox="0 0 512 512" id="indian-map">
  <path d="M489.11 166.713c-1.252-2.874-3.854-8.854-9.882-12.583-5.128-3.172-9.769-2.987-15.644-2.754-1.637.065-3.33.133-5.23.142a46.859 46.859 0 0 1-15.195-1.932 22.508 22.508 0 0 0-9.706-1.055c-11.041 1.291-16.31 9.335-21.404 17.114-4.966 7.583-10.102 15.423-21.008 19.282-.844.299-20.82 7.217-32.464-1.739a27.576 27.576 0 0 1-6.656-8.168c-2.036-3.35-4.145-6.812-8.343-6.586-5.104.275-6.388 5.664-7.63 10.876-1.216 5.108-2.73 11.465-7.328 14.74-8.325 5.93-25.949 1.102-37.504-6.77a34.945 34.945 0 0 1-7.12-6.36 29.624 29.624 0 0 0-9.621-7.61c-6.74-3.48-11.366-3.694-16.263-3.92a46.152 46.152 0 0 1-13.043-2.07c-9.86-3.089-24.75-10.973-25.36-20.038-.198-2.935 1.127-4.87 3.304-7.783 2.185-2.923 4.662-6.235 4.595-11.205-.144-10.846-14.544-17.806-27.25-23.946-5.369-2.596-15.31-7.4-15.816-9.7.666-.745 3.589-1.794 5.363-2.432 4.982-1.79 11.804-4.24 13.865-10.766 1.584-5.02-.791-8.845-2.7-11.919-1.537-2.477-2.99-4.817-2.935-7.953.109-6.21 5.979-10.666 11.656-14.974 5.43-4.123 11.046-8.385 9.797-14.436-.944-4.571-5.78-8.41-13.614-10.81a55.172 55.172 0 0 0-21.73-1.97 41.796 41.796 0 0 0-14.09 4.258c-3.312 1.545-5.313 2.48-8.58 1.874-4.638-.859-6.792-3.967-9.772-8.269-2.679-3.867-5.715-8.25-11.202-11.726-13.994-8.867-36.068-6.04-49.733 1.12C86.342 9.017 80.904 12.9 80.7 17.928c-.243 5.958 6.51 9.35 13.661 12.94 6.679 3.354 14.249 7.154 14.319 11.911.03 2.048-1.284 3.43-3.609 5.697a35.202 35.202 0 0 0-2.743 2.89 15.898 15.898 0 0 0-2.786 6.581l-.092.395c-1.73 7.145 4.233 12.086 10.545 17.316 5.782 4.793 12.337 10.225 14.628 18.132 2.563 8.85.015 21.05-5.8 27.775a28.76 28.76 0 0 1-2.334 2.352 24.94 24.94 0 0 0-5.055 6.05 28.95 28.95 0 0 0-3.9 11.529c-.4 2.523-.688 4.347-2.08 6.24-1.226 1.665-2.17 1.93-4.693 2.638a40.176 40.176 0 0 0-9.59 3.857 35.868 35.868 0 0 0-12.73 11.885c-2.3 3.217-3.82 5.342-7.582 6.482a15.499 15.499 0 0 1-7.532.216c-3.14-.467-6.697-.999-10.873 1.725-5.36 3.493-9.771 11.385-7.877 18.544 1.281 4.845 4.84 6.79 7.701 8.353 2.556 1.397 4.97 2.716 6.701 6.105a16.99 16.99 0 0 1 1.548 5.308c.5 2.893 1.068 6.173 4.328 9.787a22.87 22.87 0 0 0 2.65 2.472 8.693 8.693 0 0 1 .848.744 7.418 7.418 0 0 1-1.788 4.829 4.361 4.361 0 0 1-2.939 1.84 638.915 638.915 0 0 1-37.076-.56 6.504 6.504 0 0 0-6.345 8.868A40.4 40.4 0 0 0 58.082 267a12.99 12.99 0 0 1-2.105 1.562 14.733 14.733 0 0 1-11.47 1.296 6.491 6.491 0 0 0-7.553 9c5.97 12.806 18.766 20.83 31.108 19.495a27.657 27.657 0 0 0 15.58-7.314c.025 1.224.082 2.497.143 3.86a101.18 101.18 0 0 1-.203 15.293 86.691 86.691 0 0 0 1.311 22.377c1.867 9.641 5.261 14.873 8.256 19.49 2.803 4.32 5.223 8.05 6.527 15.129a24.375 24.375 0 0 1-.32 11.869 24.464 24.464 0 0 0-.025 13.507c2.112 8.397 5.959 12.296 10.032 16.425 3.697 3.747 7.52 7.622 11.08 15.925a47.057 47.057 0 0 1 3.34 11.47 34.054 34.054 0 0 0 5.406 14.23 60.484 60.484 0 0 0 5.479 7.196 100.736 100.736 0 0 1 7.69 10.058 87.699 87.699 0 0 1 4.87 8.143c1.02 1.878 2.075 3.82 3.608 6.243 14.335 22.661 19.823 29.783 26.404 29.783a10.293 10.293 0 0 0 1.454-.11c14.305-2.085 21.35-35.563 21.419-35.9.279-1.357.506-2.669.728-3.952.837-4.834 1.498-8.652 4.566-13.04a27.842 27.842 0 0 1 4.21-4.685c2.029-1.904 4.127-3.872 4.914-7.692.897-4.348-.638-7.442-1.992-10.172a18.05 18.05 0 0 1-2.304-7.225c-.218-2.908.447-4.463 1.654-7.285a60.26 60.26 0 0 0 2.365-6.26c3.028-9.79 1.959-16.802 1.178-21.922-.687-4.504-.919-6.58.778-8.603 1.686-2.008 3.844-2.195 7.83-2.374 4.721-.211 10.597-.476 16.608-5.62a21.86 21.86 0 0 0 6.377-9.12 20.429 20.429 0 0 1 5.478-8.06 22.525 22.525 0 0 1 8.34-5.015A32.302 32.302 0 0 0 272.1 348.2a25.68 25.68 0 0 0 6.31-8.182 21.607 21.607 0 0 1 5.073-6.711 38.808 38.808 0 0 1 9.032-6.359 33.706 33.706 0 0 0 10.743-8.354 23.749 23.749 0 0 0 4.081-6.575 54.676 54.676 0 0 1 3.052-5.882c9.113-15.39 17.454-23.2 24.792-23.207h.01c3.353 0 5.621 1.742 7.815 3.427 2.225 1.708 5.27 4.047 8.713 1.948 5.315-3.244 3.924-11.224.565-30.501-1.325-7.605-2.974-17.07-4.624-28.515-.644-4.463-2.087-14.48-1.13-17.374.633.428 1.534 1.171 2.245 1.759a38.68 38.68 0 0 0 14.114 8.046 43.646 43.646 0 0 0 12.945 1.59c4.717.051 8.79.095 14.079 2.984a11.18 11.18 0 0 1 3.63 2.676c-.252.665-1.965 2.148-3.117 3.145-2.939 2.544-6.965 6.028-9.232 11.813-2.199 5.607-3.081 15.064 2.004 17.555 4.336 2.123 8.697-2.025 13.318-6.414.103-.1.21-.202.321-.306-1.105 4.352-1.976 9.976.507 15.514a21.117 21.117 0 0 0 11.33 10.652 9.343 9.343 0 0 0 7.375-.03c2.885-1.43 4.637-4.729 5.047-17.37a84.603 84.603 0 0 0-.737-15.905c-.35-2.574-.469-3.44.13-5.192 1.298-3.797 3.866-5.2 7.754-7.323 4.162-2.275 9.343-5.105 13.63-11.88a22.381 22.381 0 0 0 3.684-12.804 14.206 14.206 0 0 1 .538-4.285 10.155 10.155 0 0 1 1.649-2.889l.184-.253c1.046-1.438 10.673-14.079 26.544-14.922a37.112 37.112 0 0 1 6.364.268c3.07.328 6.244.67 8.881-2.116 3.583-3.79 3.378-10.356-.61-19.515Zm-4.477 14.706c-.235.246-1.306.15-3.047-.035a44.231 44.231 0 0 0-7.483-.298c-19.108 1.015-30.59 16.082-31.836 17.797l-.173.237a16.684 16.684 0 0 0-2.626 4.77 20.629 20.629 0 0 0-.906 6.328 15.534 15.534 0 0 1-2.602 9.268c-3.318 5.244-7.26 7.397-11.071 9.479-4.348 2.375-8.843 4.831-11.022 11.202-1.135 3.32-.844 5.452-.441 8.403a77.36 77.36 0 0 1 .676 14.733c-.262 8.056-1.072 10.648-1.4 11.382-1.607.181-6.786-2.403-8.969-7.272-1.981-4.42-.51-9.604.564-13.39.967-3.406 2.062-7.266-1.177-9.237-3.622-2.208-7.237 1.23-11.424 5.207a50.584 50.584 0 0 1-5.192 4.508 17.881 17.881 0 0 1 1.21-8.019c1.637-4.176 4.643-6.779 7.295-9.075 3.02-2.613 6.144-5.316 5.476-9.61-.425-2.727-2.785-5.228-7.215-7.648-6.822-3.724-12.178-3.782-17.358-3.837a36.856 36.856 0 0 1-11.007-1.295 31.633 31.633 0 0 1-11.672-6.743c-2.8-2.31-5.973-4.928-9.753-3.025-5.64 2.84-4.717 11.365-2.747 25.038 1.665 11.548 3.324 21.068 4.657 28.718 1.717 9.856 3.35 19.228 2.831 22.517a53.066 53.066 0 0 1-.949-.717c-2.529-1.942-6.348-4.875-12.079-4.875h-.018c-15.043.016-26.908 20.055-30.807 26.64a61.638 61.638 0 0 0-3.398 6.543 17.14 17.14 0 0 1-3.046 4.948c-3.059 3.598-5.588 4.992-8.79 6.757a45.283 45.283 0 0 0-10.478 7.42 28.43 28.43 0 0 0-6.447 8.533 18.726 18.726 0 0 1-4.813 6.246 25.62 25.62 0 0 1-9.118 5.472 29.407 29.407 0 0 0-10.553 6.412 27.312 27.312 0 0 0-7.133 10.417 14.915 14.915 0 0 1-4.496 6.561c-4.18 3.577-8.158 3.756-12.37 3.945-4.283.193-9.137.41-12.877 4.867-3.805 4.533-3.092 9.208-2.337 14.159.754 4.942 1.608 10.544-.945 18.798a53.681 53.681 0 0 1-2.114 5.576c-1.365 3.19-2.544 5.947-2.199 10.56a24.761 24.761 0 0 0 3.014 9.814c1.227 2.473 1.8 3.746 1.408 5.646-.323 1.567-.985 2.252-2.85 4.001a34.636 34.636 0 0 0-5.156 5.779c-3.962 5.668-4.859 10.847-5.726 15.857-.21 1.213-.424 2.453-.688 3.735-2.813 13.682-10.07 29.582-15.571 30.385-3.217.425-9.837-8.948-20.933-26.49-1.409-2.227-2.363-3.983-3.373-5.842a94.825 94.825 0 0 0-5.219-8.716 106.614 106.614 0 0 0-8.16-10.679 53.31 53.31 0 0 1-4.909-6.423 27.163 27.163 0 0 1-4.423-11.728 53.734 53.734 0 0 0-3.792-12.967 53.096 53.096 0 0 0-12.53-18.083c-3.82-3.873-6.58-6.67-8.227-13.217a17.867 17.867 0 0 1 .048-10.18 31.01 31.01 0 0 0 .393-14.756c-1.557-8.45-4.598-13.138-7.539-17.67-2.904-4.478-5.647-8.707-7.255-17.01a81.008 81.008 0 0 1-1.215-20.382 108.679 108.679 0 0 0 .226-16.272 65.872 65.872 0 0 1-.086-6.91 5.423 5.423 0 0 0-3.353-5.418 5.551 5.551 0 0 0-2.153-.44 5.449 5.449 0 0 0-4.078 1.853c-2.814 3.15-7.492 7.045-13.793 7.723-9.108.972-18.643-4.949-23.534-14.507a20.78 20.78 0 0 0 24.495-12.66 3.5 3.5 0 0 0-3.883-4.764 34.23 34.23 0 0 1-24.075-4.538 33.868 33.868 0 0 1-13.31-15.937 643.783 643.783 0 0 0 36.717.533 10.932 10.932 0 0 0 8.304-4.463c2.561-3.198 3.838-7.472 3.178-10.637a7.936 7.936 0 0 0-3.258-4.723 16.139 16.139 0 0 1-1.896-1.752c-1.905-2.11-2.192-3.773-2.627-6.29a23.556 23.556 0 0 0-2.212-7.3c-2.715-5.311-6.681-7.479-9.577-9.062-2.621-1.433-3.8-2.144-4.292-4.002-.923-3.486 1.382-8.575 4.932-10.89 1.87-1.218 3.196-1.086 6.017-.664a22.185 22.185 0 0 0 10.595-.441c6.042-1.83 8.688-5.53 11.247-9.109 2.35-3.287 4.782-6.686 10.445-9.843a33.136 33.136 0 0 1 8.073-3.232c2.975-.835 5.785-1.624 8.438-5.23 2.403-3.264 2.887-6.33 3.356-9.293a22.03 22.03 0 0 1 2.983-9.01 18.296 18.296 0 0 1 3.823-4.535 35.288 35.288 0 0 0 2.865-2.9c7.45-8.616 10.49-23.042 7.228-34.302-2.89-9.976-10.65-16.406-16.885-21.574-5.543-4.594-8.861-7.579-8.208-10.28l.108-.46a10.65 10.65 0 0 1 1.382-3.73 29.766 29.766 0 0 1 2.215-2.312c2.583-2.517 5.796-5.651 5.72-10.81-.13-9.004-10.136-14.029-18.176-18.065-2.952-1.482-9.867-4.955-9.808-6.4.016-.405 1.211-2.636 6.422-5.366 10.218-5.353 30.233-9.331 42.738-1.409 4.287 2.717 6.782 6.318 9.194 9.8 3.331 4.809 6.776 9.782 14.251 11.165 5.474 1.018 9.04-.651 12.816-2.414a35.254 35.254 0 0 1 11.935-3.647c13.185-1.529 26.89 3.403 27.682 7.243.357 1.727-3.818 4.897-7.173 7.443-6.351 4.82-14.255 10.82-14.423 20.429-.09 5.197 2.17 8.84 3.987 11.767 1.878 3.025 2.534 4.336 1.97 6.12-1.015 3.217-5.356 4.777-9.554 6.285-4.579 1.644-9.313 3.346-9.947 7.994-.96 7.032 8.167 11.443 19.72 17.027 9.796 4.735 23.21 11.22 23.297 17.739.033 2.465-1.195 4.235-3.202 6.92-2.257 3.017-5.064 6.773-4.683 12.445 1.12 16.652 27.275 25.314 30.253 26.247a52.703 52.703 0 0 0 14.811 2.382c4.467.207 7.995.37 13.376 3.148a22.818 22.818 0 0 1 7.623 6.066 41.443 41.443 0 0 0 8.387 7.468 67.097 67.097 0 0 0 22.15 9.592c9.635 2.12 17.712 1.117 23.357-2.904 6.737-4.799 8.668-12.903 10.077-18.82a40.404 40.404 0 0 1 1.404-5.01c.537.693 1.23 1.832 1.777 2.733a34.3 34.3 0 0 0 8.37 10.082c14.377 11.059 36.582 3.667 39.067 2.79 13.132-4.647 19.187-13.891 24.529-22.048 4.788-7.31 8.57-13.084 16.361-13.995a15.747 15.747 0 0 1 7.012.844 55.605 55.605 0 0 0 17.108 2.19c2.023-.01 3.858-.083 5.476-.147 5.222-.208 8.376-.334 11.683 1.712 4.166 2.577 6.032 6.863 7.146 9.424 3.293 7.563 2.71 11.098 1.942 11.912Z"></path>
</svg>
